HIERARCHY
ROOT newVegas:Hips
{
	OFFSET 0.000000 96.479958 0.000000
	CHANNELS 6 Xposition Yposition Zposition Xrotation Yrotation Zrotation
	JOINT newVegas:Pelvis
	{
		OFFSET 0.000000 0.000000 0.000000
		CHANNELS 3 Xrotation Yrotation Zrotation
		JOINT newVegas:LeftUpLeg
		{
			OFFSET 18.735201 -5.666702 -4.541200
			CHANNELS 3 Xrotation Yrotation Zrotation
			JOINT newVegas:LeftLeg
			{
				OFFSET -0.021200 -31.938179 0.493100
				CHANNELS 3 Xrotation Yrotation Zrotation
				JOINT newVegas:LeftFoot
				{
					OFFSET 0.021200 -31.938179 -4.336299
					CHANNELS 3 Xrotation Yrotation Zrotation
					JOINT newVegas:LeftToeBase
					{
						OFFSET 0.943001 -26.722000 15.023500
						CHANNELS 3 Xrotation Yrotation Zrotation
						End Site
						{
							OFFSET 0.000000 30.670183 0.000000
						}
					}
				}
				JOINT newVegas:Left_PantLeg
				{
					OFFSET 0.663870 -9.044666 -1.108900
					CHANNELS 3 Xrotation Yrotation Zrotation
					End Site
					{
						OFFSET 1.415995 20.635357 0.000000
					}
				}
			}
		}
		JOINT newVegas:RightUpLeg
		{
			OFFSET -18.735201 -5.666702 -4.541200
			CHANNELS 3 Xrotation Yrotation Zrotation
			JOINT newVegas:RightLeg
			{
				OFFSET 0.018946 -31.938133 0.493100
				CHANNELS 3 Xrotation Yrotation Zrotation
				JOINT newVegas:RightFoot
				{
					OFFSET -0.018946 -31.938126 -4.336299
					CHANNELS 3 Xrotation Yrotation Zrotation
					JOINT newVegas:RightToeBase
					{
						OFFSET -0.943001 -26.722004 15.023500
						CHANNELS 3 Xrotation Yrotation Zrotation
						End Site
						{
							OFFSET 0.000000 30.670187 0.000000
						}
					}
				}
				JOINT newVegas:Right_PantLeg
				{
					OFFSET -0.661674 -9.044716 -1.108900
					CHANNELS 3 Xrotation Yrotation Zrotation
					End Site
					{
						OFFSET -1.415958 20.635269 0.000000
					}
				}
			}
		}
	}
	JOINT newVegas:Spine
	{
		OFFSET 0.000000 10.199997 -0.299500
		CHANNELS 3 Xrotation Yrotation Zrotation
		JOINT newVegas:Spine1
		{
			OFFSET 0.000000 11.900002 -1.516600
			CHANNELS 3 Xrotation Yrotation Zrotation
			JOINT newVegas:Spine2
			{
				OFFSET 0.000000 13.600006 -2.842500
				CHANNELS 3 Xrotation Yrotation Zrotation
				JOINT newVegas:Neck
				{
					OFFSET 0.000000 9.624100 -2.890100
					CHANNELS 3 Xrotation Yrotation Zrotation
					JOINT newVegas:Head
					{
						OFFSET 0.000000 14.068802 -1.351900
						CHANNELS 3 Xrotation Yrotation Zrotation
						JOINT newVegas:Hair_Back
						{
							OFFSET 0.000000 3.231903 -17.524799
							CHANNELS 3 Xrotation Yrotation Zrotation
							End Site
							{
								OFFSET 0.000000 19.849884 0.000000
							}
						}
						JOINT newVegas:Hair_Front
						{
							OFFSET 0.000000 31.260406 4.573800
							CHANNELS 3 Xrotation Yrotation Zrotation
							JOINT newVegas:Hair_Front1
							{
								OFFSET 0.000000 2.284103 11.993300
								CHANNELS 3 Xrotation Yrotation Zrotation
								JOINT newVegas:Hair_Front2
								{
									OFFSET 0.000000 2.284103 11.993300
									CHANNELS 3 Xrotation Yrotation Zrotation
									End Site
									{
										OFFSET 0.000000 12.208862 0.000000
									}
								}
							}
						}
						JOINT newVegas:Jowel
						{
							OFFSET 0.000000 -7.458206 6.864100
							CHANNELS 3 Xrotation Yrotation Zrotation
							End Site
							{
								OFFSET 0.000000 19.849884 0.000000
							}
						}
					}
				}
				JOINT newVegas:LeftShoulder
				{
					OFFSET 15.263000 10.923401 -0.547700
					CHANNELS 3 Xrotation Yrotation Zrotation
					JOINT newVegas:LeftArm
					{
						OFFSET 25.438599 -2.830597 -13.032500
						CHANNELS 3 Xrotation Yrotation Zrotation
						JOINT newVegas:LeftForeArm
						{
							OFFSET 29.960503 0.000000 0.000000
							CHANNELS 3 Xrotation Yrotation Zrotation
							JOINT newVegas:LeftHand
							{
								OFFSET 27.849251 0.000000 0.000000
								CHANNELS 3 Xrotation Yrotation Zrotation
								JOINT newVegas:LeftHandThumb1
								{
									OFFSET 4.487587 -3.305161 6.305391
									CHANNELS 3 Xrotation Yrotation Zrotation
									JOINT newVegas:LeftHandThumb2
									{
										OFFSET 5.480453 -3.164139 3.164143
										CHANNELS 3 Xrotation Yrotation Zrotation
										JOINT newVegas:LeftHandThumb3
										{
											OFFSET 5.159721 -2.978973 2.978967
											CHANNELS 3 Xrotation Yrotation Zrotation
											End Site
											{
												OFFSET 2.494507 5.926697 1.738678
											}
										}
									}
								}
								JOINT newVegas:LeftHandIndex1
								{
									OFFSET 18.578728 -0.527832 5.208049
									CHANNELS 3 Xrotation Yrotation Zrotation
									JOINT newVegas:LeftHandIndex2
									{
										OFFSET 3.192009 0.000000 0.000000
										CHANNELS 3 Xrotation Yrotation Zrotation
										JOINT newVegas:LeftHandIndex3
										{
											OFFSET 3.835129 0.000000 0.000000
											CHANNELS 3 Xrotation Yrotation Zrotation
											End Site
											{
												OFFSET -0.034599 3.816971 0.371180
											}
										}
									}
								}
								JOINT newVegas:LeftHandMiddle1
								{
									OFFSET 18.476105 0.000000 0.000000
									CHANNELS 3 Xrotation Yrotation Zrotation
									JOINT newVegas:LeftHandMiddle2
									{
										OFFSET 3.324875 0.000000 0.000000
										CHANNELS 3 Xrotation Yrotation Zrotation
										JOINT newVegas:LeftHandMiddle3
										{
											OFFSET 4.596550 0.000000 0.000000
											CHANNELS 3 Xrotation Yrotation Zrotation
											End Site
											{
												OFFSET 0.057701 4.578827 0.399218
											}
										}
									}
								}
								JOINT newVegas:LeftHandRing1
								{
									OFFSET 17.732719 0.121887 -4.201567
									CHANNELS 3 Xrotation Yrotation Zrotation
									JOINT newVegas:LeftHandRing2
									{
										OFFSET 2.733170 0.000000 0.000000
										CHANNELS 3 Xrotation Yrotation Zrotation
										JOINT newVegas:LeftHandRing3
										{
											OFFSET 3.178268 0.000000 0.000000
											CHANNELS 3 Xrotation Yrotation Zrotation
											End Site
											{
												OFFSET 0.119102 3.170624 0.185394
											}
										}
									}
								}
								JOINT newVegas:LeftHandPinky1
								{
									OFFSET 15.989624 -0.606689 -7.535461
									CHANNELS 3 Xrotation Yrotation Zrotation
									JOINT newVegas:LeftHandPinky2
									{
										OFFSET 2.538986 0.000000 0.000000
										CHANNELS 3 Xrotation Yrotation Zrotation
										JOINT newVegas:LeftHandPinky3
										{
											OFFSET 2.593102 0.000000 0.000000
											CHANNELS 3 Xrotation Yrotation Zrotation
											End Site
											{
												OFFSET -0.150902 2.584198 0.152708
											}
										}
									}
								}
							}
							JOINT newVegas:Left_Sleeve
							{
								OFFSET 0.267448 -0.649796 0.577675
								CHANNELS 3 Xrotation Yrotation Zrotation
								End Site
								{
									OFFSET 0.000000 15.991241 0.000000
								}
							}
							JOINT newVegas:Left_CapeC
							{
								OFFSET 15.715958 -8.608795 -6.935905
								CHANNELS 3 Xrotation Yrotation Zrotation
								JOINT newVegas:Left_CapeC1
								{
									OFFSET 0.000000 -8.688499 0.000000
									CHANNELS 3 Xrotation Yrotation Zrotation
									End Site
									{
										OFFSET 0.000000 8.688499 0.000000
									}
								}
							}
						}
						JOINT newVegas:Left_CapeB
						{
							OFFSET 26.118385 -8.608795 -7.079235
							CHANNELS 3 Xrotation Yrotation Zrotation
							JOINT newVegas:Left_CapeB1
							{
								OFFSET 0.000000 -8.688499 0.000000
								CHANNELS 3 Xrotation Yrotation Zrotation
								End Site
								{
									OFFSET 0.000000 8.688499 0.000000
								}
							}
						}
						JOINT newVegas:Left_CapeA
						{
							OFFSET 5.115639 -8.608795 -10.395809
							CHANNELS 3 Xrotation Yrotation Zrotation
							JOINT newVegas:Left_CapeA1
							{
								OFFSET 0.000000 -8.688499 0.000000
								CHANNELS 3 Xrotation Yrotation Zrotation
								End Site
								{
									OFFSET 0.000000 8.688499 0.000000
								}
							}
						}
					}
				}
				JOINT newVegas:RightShoulder
				{
					OFFSET -15.263000 10.923401 -0.547700
					CHANNELS 3 Xrotation Yrotation Zrotation
					JOINT newVegas:RightArm
					{
						OFFSET -25.438599 -2.830597 -13.032500
						CHANNELS 3 Xrotation Yrotation Zrotation
						JOINT newVegas:RightForeArm
						{
							OFFSET -29.960503 0.000000 0.000000
							CHANNELS 3 Xrotation Yrotation Zrotation
							JOINT newVegas:RightHand
							{
								OFFSET -27.849251 0.000000 0.000000
								CHANNELS 3 Xrotation Yrotation Zrotation
								JOINT newVegas:RightHandThumb1
								{
									OFFSET -4.487587 -3.305161 6.305391
									CHANNELS 3 Xrotation Yrotation Zrotation
									JOINT newVegas:RightHandThumb2
									{
										OFFSET -5.480453 -3.164139 3.164143
										CHANNELS 3 Xrotation Yrotation Zrotation
										JOINT newVegas:RightHandThumb3
										{
											OFFSET -5.159721 -2.978973 2.978967
											CHANNELS 3 Xrotation Yrotation Zrotation
											End Site
											{
												OFFSET -2.494507 5.926697 1.738678
											}
										}
									}
								}
								JOINT newVegas:RightHandIndex1
								{
									OFFSET -18.578728 -0.527832 5.208049
									CHANNELS 3 Xrotation Yrotation Zrotation
									JOINT newVegas:RightHandIndex2
									{
										OFFSET -3.192009 0.000000 0.000000
										CHANNELS 3 Xrotation Yrotation Zrotation
										JOINT newVegas:RightHandIndex3
										{
											OFFSET -3.835129 0.000000 0.000000
											CHANNELS 3 Xrotation Yrotation Zrotation
											End Site
											{
												OFFSET 0.034599 3.816971 0.371180
											}
										}
									}
								}
								JOINT newVegas:RightHandMiddle1
								{
									OFFSET -18.476105 0.000000 0.000000
									CHANNELS 3 Xrotation Yrotation Zrotation
									JOINT newVegas:RightHandMiddle2
									{
										OFFSET -3.324875 0.000000 0.000000
										CHANNELS 3 Xrotation Yrotation Zrotation
										JOINT newVegas:RightHandMiddle3
										{
											OFFSET -4.596550 0.000000 0.000000
											CHANNELS 3 Xrotation Yrotation Zrotation
											End Site
											{
												OFFSET -0.057701 4.578827 0.399218
											}
										}
									}
								}
								JOINT newVegas:RightHandRing1
								{
									OFFSET -17.732719 0.121887 -4.201567
									CHANNELS 3 Xrotation Yrotation Zrotation
									JOINT newVegas:RightHandRing2
									{
										OFFSET -2.733170 0.000000 0.000000
										CHANNELS 3 Xrotation Yrotation Zrotation
										JOINT newVegas:RightHandRing3
										{
											OFFSET -3.178268 0.000000 0.000000
											CHANNELS 3 Xrotation Yrotation Zrotation
											End Site
											{
												OFFSET -0.119102 3.170624 0.185394
											}
										}
									}
								}
								JOINT newVegas:RightHandPinky1
								{
									OFFSET -15.989624 -0.606689 -7.535461
									CHANNELS 3 Xrotation Yrotation Zrotation
									JOINT newVegas:RightHandPinky2
									{
										OFFSET -2.538986 0.000000 0.000000
										CHANNELS 3 Xrotation Yrotation Zrotation
										JOINT newVegas:RightHandPinky3
										{
											OFFSET -2.593102 0.000000 0.000000
											CHANNELS 3 Xrotation Yrotation Zrotation
											End Site
											{
												OFFSET 0.150902 2.584198 0.152708
											}
										}
									}
								}
							}
							JOINT newVegas:Right_CapeC
							{
								OFFSET -15.715958 -8.608795 -6.935905
								CHANNELS 3 Xrotation Yrotation Zrotation
								JOINT newVegas:Right_CapeC1
								{
									OFFSET 0.000000 -8.688499 0.000000
									CHANNELS 3 Xrotation Yrotation Zrotation
									End Site
									{
										OFFSET 0.000000 8.688499 0.000000
									}
								}
							}
							JOINT newVegas:Right_Sleeve
							{
								OFFSET -0.267448 -0.649994 0.577675
								CHANNELS 3 Xrotation Yrotation Zrotation
								End Site
								{
									OFFSET 0.000000 15.991302 0.000000
								}
							}
						}
						JOINT newVegas:Right_CapeA
						{
							OFFSET -5.115540 -8.608795 -10.395824
							CHANNELS 3 Xrotation Yrotation Zrotation
							JOINT newVegas:Right_CapeA1
							{
								OFFSET 0.000000 -8.688499 0.000000
								CHANNELS 3 Xrotation Yrotation Zrotation
								End Site
								{
									OFFSET 0.000000 8.688499 0.000000
								}
							}
						}
						JOINT newVegas:Right_CapeB
						{
							OFFSET -26.118187 -8.608795 -7.079266
							CHANNELS 3 Xrotation Yrotation Zrotation
							JOINT newVegas:Right_CapeB1
							{
								OFFSET 0.000000 -8.688499 0.000000
								CHANNELS 3 Xrotation Yrotation Zrotation
								End Site
								{
									OFFSET 0.000000 8.688499 0.000000
								}
							}
						}
					}
				}
				JOINT newVegas:Left_Collar
				{
					OFFSET 18.625099 8.655502 8.828100
					CHANNELS 3 Xrotation Yrotation Zrotation
					JOINT newVegas:Left_Collar1
					{
						OFFSET 14.783401 10.540405 -1.259500
						CHANNELS 3 Xrotation Yrotation Zrotation
						End Site
						{
							OFFSET 0.000000 18.199875 0.000000
						}
					}
				}
				JOINT newVegas:Collar_Back
				{
					OFFSET 0.000000 15.630707 -20.132601
					CHANNELS 3 Xrotation Yrotation Zrotation
					End Site
					{
						OFFSET 0.000000 22.523010 0.000000
					}
				}
				JOINT newVegas:Left_Peck
				{
					OFFSET 17.239599 -5.132599 25.482599
					CHANNELS 3 Xrotation Yrotation Zrotation
					End Site
					{
						OFFSET 0.000000 22.523010 0.000000
					}
				}
				JOINT newVegas:Right_Peck
				{
					OFFSET -17.239599 -5.132202 25.482599
					CHANNELS 3 Xrotation Yrotation Zrotation
					End Site
					{
						OFFSET 0.000000 22.523010 0.000000
					}
				}
				JOINT newVegas:Right_Collar
				{
					OFFSET -18.625099 8.655792 8.828100
					CHANNELS 3 Xrotation Yrotation Zrotation
					JOINT newVegas:Right_Collar1
					{
						OFFSET -14.783401 10.539993 -1.259500
						CHANNELS 3 Xrotation Yrotation Zrotation
						End Site
						{
							OFFSET 0.000000 18.199631 0.000000
						}
					}
				}
			}
		}
		JOINT newVegas:Belly
		{
			OFFSET 0.000000 -6.540398 9.014299
			CHANNELS 3 Xrotation Yrotation Zrotation
			End Site
			{
				OFFSET 0.000000 11.566666 0.000000
			}
		}
	}
	JOINT newVegas:ElvisFacialAnim_Joint
	{
		OFFSET 1.000000 -95.330101 -8.825800
		CHANNELS 3 Xrotation Yrotation Zrotation
		End Site
		{
			OFFSET 0.000000 35.315800 0.000000
		}
	}
}
MOTION
Frames: 4
Frame Time: 0.033333
-4.728891 46.422531 -0.470283 -4.182456 -36.691062 -6.723946 0.000000 0.000001 -0.000000 -85.319212 -46.533611 46.321383 129.073759 -19.771461 -4.110734 -14.358822 4.719828 -20.888073 0.000000 0.000000 0.000000 -0.000000 -0.000001 -0.000002 -26.062255 18.353140 -78.009401 106.826631 26.274035 4.051210 -19.650654 -10.589476 37.322500 0.000000 0.000000 -0.000000 0.000004 0.000001 -0.000003 35.202761 1.499651 -5.659356 21.528845 -4.036497 4.768391 -0.626703 -3.869352 11.606161 -0.269564 1.879344 -0.864134 -0.269534 1.879334 -0.864126 0.000003 -0.000001 0.000001 -0.269545 1.879379 -0.864140 -0.269493 1.879283 -0.864113 -0.000001 0.000001 -0.000002 0.000003 -0.000001 -0.000001 10.387299 -24.508809 38.137331 -41.471799 15.924058 -8.401087 -95.732498 -10.977981 -97.826225 0.525427 -6.157429 -1.873967 4.766484 -0.870674 -14.442454 15.978266 13.138781 8.498689 0.000000 0.000000 -0.000001 -3.659608 -7.650883 -82.961786 -0.001223 -4.389291 -69.238857 0.000000 -0.000001 0.000003 -5.181054 2.970729 -88.481317 -0.070123 -4.900204 -78.558186 0.000000 -0.000000 0.000001 -4.240033 4.013187 -92.368138 -1.162268 -0.637243 -64.965549 -0.000000 -0.000002 -0.000000 -8.360399 8.693537 -87.699212 -0.032675 -0.070739 -75.939273 0.000000 -0.000002 0.000000 -0.000000 0.000000 -0.000000 -0.000000 0.000000 -0.000000 -0.000000 0.000000 0.000000 -0.000000 0.000000 -0.000000 -0.000000 -0.000001 0.000001 -0.000000 0.000000 -0.000000 -0.000000 0.000001 0.000000 3.281728 -2.664070 7.901278 -25.914245 -4.173979 42.853908 -14.328996 8.711117 5.219812 0.093132 -0.502053 -9.797660 24.918342 -21.323354 30.343030 8.996110 8.344680 -18.317659 0.000001 -0.000001 -0.000004 -0.187025 -2.971264 61.029755 0.008056 4.394438 66.065995 0.000000 0.000000 -0.000001 -1.251420 -0.144648 68.230544 -0.079820 4.907400 84.514029 0.000000 0.000002 0.000000 0.920837 -4.640464 79.097962 -0.724149 1.137818 73.232892 -0.000001 0.000001 -0.000001 -3.973187 0.093690 86.964530 -0.020005 0.043554 54.374699 0.000000 0.000003 0.000001 0.000001 -0.000003 -0.000001 0.000001 -0.000002 -0.000001 0.000001 -0.000003 -0.000003 0.000001 0.000002 0.000004 0.000001 0.000003 0.000003 0.000001 0.000002 0.000004 0.000001 0.000003 0.000003 0.000001 0.000000 0.000001 0.000001 0.000000 0.000001 0.000001 0.000000 0.000001 0.000001 0.000000 0.000001 0.000001 0.000000 0.000001 0.000001 0.000000 0.000001 0.000001 0.000000 0.000001 0.000003 0.000002 0.000001 0.000000 0.000001 -0.000000 
-4.721566 46.431160 -0.445013 -4.127479 -36.678830 -6.701225 -0.000000 -0.000001 0.000000 -85.380752 -46.514060 46.290053 129.105506 -19.750761 -4.115712 -14.407668 4.716655 -20.856481 0.000000 -0.000000 -0.000000 -0.000000 0.000000 0.000002 -26.088210 18.301656 -78.017324 106.744874 26.282860 4.067552 -19.606113 -10.584947 37.337379 0.000001 -0.000000 -0.000000 0.000002 0.000001 0.000002 35.185614 1.460465 -5.642646 21.528845 -4.036497 4.768392 -0.626011 -3.872771 11.606497 -0.261225 1.882555 -0.859253 -0.261231 1.882556 -0.859268 -0.000000 -0.000000 -0.000000 -0.261225 1.882508 -0.859241 -0.261191 1.882610 -0.859269 -0.000000 -0.000001 -0.000001 -0.000000 -0.000000 -0.000000 10.415037 -24.547859 38.179870 -41.460877 15.989471 -8.344942 -95.700697 -10.626123 -97.683542 0.420544 -6.024144 -2.274581 4.766485 -0.870675 -14.442461 15.942088 13.060504 8.550582 -0.000003 0.000000 -0.000001 -3.633190 -7.670524 -82.776620 0.001983 -4.386663 -69.200820 -0.000001 0.000000 0.000002 -5.196156 2.945785 -88.137519 -0.068480 -4.899144 -78.568656 -0.000001 0.000000 -0.000000 -4.247049 4.005871 -92.267741 -1.166364 -0.639780 -64.939950 0.000000 -0.000000 -0.000003 -8.351907 8.697264 -87.749107 -0.032530 -0.070558 -75.940441 0.000001 -0.000003 0.000001 -0.000000 -0.000000 0.000000 -0.000000 -0.000000 0.000000 -0.000000 -0.000000 0.000000 0.000000 -0.000001 -0.000000 -0.000000 -0.000001 0.000001 0.000000 -0.000001 -0.000000 -0.000000 -0.000001 0.000000 3.280174 -2.620604 7.884002 -25.938806 -4.203940 42.774838 -14.038565 8.735820 5.183387 0.087620 -0.544925 -9.888369 24.918342 -21.323357 30.343030 9.005263 8.345685 -18.300568 0.000000 -0.000003 0.000001 -0.203969 -2.962313 61.043450 0.009802 4.393680 66.409328 0.000000 -0.000001 0.000000 -1.250409 -0.145454 68.237244 -0.078696 4.899247 84.591039 0.000001 0.000001 0.000000 0.920837 -4.640472 79.097962 -0.721019 1.136467 73.250978 0.000000 0.000001 -0.000000 -3.981215 0.097374 86.917859 -0.019666 0.042415 54.380166 0.000001 0.000001 0.000001 0.000001 0.000001 0.000000 0.000002 -0.000001 -0.000001 0.000001 0.000001 -0.000002 0.000000 0.000002 -0.000002 0.000000 0.000003 -0.000001 0.000000 0.000002 -0.000002 0.000000 0.000003 0.000001 0.000001 -0.000000 0.000001 0.000001 -0.000000 0.000001 0.000001 -0.000000 0.000001 0.000001 -0.000000 0.000001 0.000001 -0.000000 0.000001 0.000001 -0.000000 0.000001 0.000001 -0.000000 0.000001 -0.000000 -0.000000 -0.000000 -0.000000 -0.000001 0.000000 
-4.715540 46.419373 -0.433592 -4.066086 -36.648521 -6.686003 -0.000000 0.000000 -0.000000 -85.528845 -46.564449 46.213866 129.127814 -19.740048 -4.114441 -14.371891 4.701830 -20.847581 0.000000 -0.000000 0.000000 0.000001 -0.000000 0.000002 -26.131190 18.282746 -78.064978 106.692063 26.366217 4.097233 -19.527685 -10.561424 37.297956 0.000001 0.000000 0.000001 0.000000 -0.000001 -0.000002 35.078206 1.448256 -5.583095 21.528843 -4.036498 4.768392 -0.623140 -3.886717 11.607819 -0.256657 1.890208 -0.858773 -0.256660 1.890220 -0.858779 0.000003 -0.000002 0.000001 -0.256598 1.890210 -0.858760 -0.256658 1.890183 -0.858764 0.000001 0.000000 -0.000002 0.000003 -0.000002 -0.000000 10.419095 -24.597801 38.155172 -41.461451 16.046986 -8.292069 -95.686456 -10.582504 -97.872130 0.483627 -6.156779 -2.030565 4.766483 -0.870673 -14.442461 15.872567 12.909636 8.650216 -0.000000 -0.000005 -0.000008 -3.580303 -7.696695 -82.412830 0.001929 -4.386702 -69.082268 0.000000 -0.000002 -0.000000 -5.218218 2.905890 -87.702060 -0.068362 -4.899078 -78.569394 -0.000001 0.000000 0.000001 -4.260784 3.991486 -92.070772 -1.166798 -0.640036 -64.937341 0.000000 0.000001 -0.000001 -8.346354 8.699685 -87.781728 -0.038750 -0.069633 -75.879522 0.000001 0.000003 0.000003 -0.000000 0.000000 0.000000 -0.000000 0.000000 0.000000 -0.000000 0.000000 0.000000 -0.000000 0.000000 0.000001 -0.000000 0.000000 0.000001 -0.000000 0.000000 0.000001 -0.000000 -0.000000 0.000001 3.277391 -2.611581 7.861532 -25.921177 -4.206267 42.702285 -13.825437 8.749314 5.173211 0.095545 -0.537609 -9.957288 24.918350 -21.323352 30.343030 8.995415 8.375883 -18.406195 0.000003 0.000001 -0.000000 -0.181143 -2.973864 60.987770 0.000251 4.401579 66.358949 0.000000 -0.000001 0.000001 -1.246903 -0.148061 68.260084 -0.077202 4.896495 84.630360 -0.000000 0.000001 -0.000000 0.929244 -4.640723 79.127311 -0.717893 1.135097 73.269031 0.000001 0.000001 -0.000000 -3.988730 0.094881 86.944046 -0.020385 0.044929 54.367725 0.000001 -0.000002 -0.000000 0.000002 -0.000002 0.000001 0.000002 -0.000002 0.000001 0.000002 -0.000002 -0.000001 0.000001 0.000003 0.000001 0.000002 0.000004 0.000003 0.000001 0.000003 0.000001 0.000002 0.000004 0.000003 -0.000000 -0.000000 0.000002 -0.000000 -0.000000 0.000002 -0.000000 -0.000000 0.000002 -0.000000 -0.000000 0.000002 -0.000000 -0.000000 0.000002 -0.000000 -0.000000 0.000002 -0.000000 -0.000000 0.000002 -0.000000 0.000000 -0.000002 -0.000000 0.000000 -0.000000 
-4.710805 46.402321 -0.420955 -3.997509 -36.656256 -6.634577 0.000000 0.000000 0.000000 -85.597645 -46.576549 46.176549 129.158754 -19.734295 -4.114154 -14.386999 4.715887 -20.865407 -0.000000 0.000000 0.000000 0.000002 -0.000001 -0.000003 -26.181290 18.339671 -78.071542 106.727443 26.347979 4.092275 -19.510198 -10.559630 37.295261 -0.000001 0.000000 -0.000000 -0.000003 -0.000001 -0.000001 35.056182 1.454463 -5.587233 21.528843 -4.036498 4.768395 -0.624513 -3.880053 11.607182 -0.247796 1.888740 -0.855944 -0.247806 1.888758 -0.855949 0.000001 -0.000001 0.000003 -0.247754 1.888736 -0.855937 -0.247858 1.888748 -0.855951 0.000003 -0.000002 0.000001 0.000001 -0.000001 0.000001 10.466812 -24.631937 38.234453 -41.490916 16.053904 -8.312275 -95.695164 -10.596046 -97.920911 0.413127 -6.067922 -2.297415 4.766485 -0.870672 -14.442452 15.829728 12.816324 8.711635 -0.000001 -0.000000 -0.000003 -3.534062 -7.720900 -82.094967 -0.002701 -4.374367 -69.159600 -0.000000 -0.000004 -0.000001 -5.236429 2.875638 -87.322814 -0.071133 -4.900857 -78.551724 -0.000000 -0.000000 -0.000001 -4.283203 3.967805 -91.747903 -1.159776 -0.635724 -64.980951 0.000000 -0.000002 0.000003 -8.344200 8.700637 -87.794370 -0.038312 -0.069718 -75.884057 0.000001 0.000000 0.000001 0.000000 -0.000000 -0.000000 0.000000 -0.000000 -0.000000 0.000000 -0.000000 -0.000000 0.000000 0.000001 -0.000001 0.000000 0.000001 -0.000000 0.000000 0.000001 -0.000001 0.000000 0.000001 -0.000001 3.268212 -2.667826 7.800478 -25.894719 -4.219243 42.740848 -13.860017 8.750541 5.164396 0.101064 -0.459837 -9.908154 24.918345 -21.323357 30.343033 8.994382 8.380808 -18.418763 -0.000000 0.000000 0.000001 -0.188388 -2.967836 60.880174 -0.003730 4.403016 66.338424 0.000001 0.000000 -0.000002 -1.243222 -0.142056 68.213427 -0.085108 4.900822 84.596872 0.000000 -0.000001 -0.000001 0.947647 -4.642922 79.116239 -0.714761 1.133754 73.287103 -0.000000 -0.000001 -0.000001 -3.988775 0.090284 86.997936 -0.022167 0.051553 54.337789 -0.000000 0.000003 0.000000 0.000002 0.000003 0.000004 0.000003 0.000002 0.000003 0.000002 0.000002 0.000004 0.000002 -0.000003 -0.000002 0.000003 -0.000002 -0.000003 0.000002 -0.000003 -0.000002 0.000003 -0.000002 -0.000003 0.000002 -0.000001 0.000002 0.000002 -0.000001 0.000002 0.000002 -0.000001 0.000002 0.000002 -0.000001 0.000002 0.000002 -0.000001 0.000002 0.000002 -0.000001 0.000002 0.000002 -0.000001 0.000002 -0.000003 -0.000001 -0.000000 0.000000 0.000000 0.000000 
